<svg xmlns="http://www.w3.org/2000/svg" xmlns:xlink="http://www.w3.org/1999/xlink" width="500" zoomAndPan="magnify" viewBox="0 0 375 374.999991" height="500" preserveAspectRatio="xMidYMid meet" version="1.0"><defs><g/><clipPath id="bf5432bc2f"><path d="M 71.441406 57.785156 L 149.730469 57.785156 L 149.730469 317.308594 L 71.441406 317.308594 Z M 71.441406 57.785156 " clip-rule="nonzero"/></clipPath><clipPath id="8b5ddb4263"><path d="M 101.566406 57.785156 L 144.039062 57.785156 C 145.574219 57.785156 147.042969 58.433594 148.074219 59.570312 C 149.109375 60.707031 149.617188 62.226562 149.476562 63.757812 L 126.167969 311.242188 C 125.847656 314.628906 123.003906 317.214844 119.605469 317.214844 L 77.132812 317.214844 C 75.59375 317.214844 74.128906 316.566406 73.09375 315.429688 C 72.058594 314.292969 71.550781 312.773438 71.695312 311.242188 L 95.003906 63.757812 C 95.320312 60.371094 98.164062 57.785156 101.566406 57.785156 Z M 101.566406 57.785156 " clip-rule="nonzero"/></clipPath><clipPath id="1ecdbe5879"><path d="M 0.519531 0.785156 L 78.730469 0.785156 L 78.730469 260.28125 L 0.519531 260.28125 Z M 0.519531 0.785156 " clip-rule="nonzero"/></clipPath><clipPath id="30ffe1cfa9"><path d="M 30.566406 0.785156 L 73.039062 0.785156 C 74.574219 0.785156 76.042969 1.433594 77.074219 2.570312 C 78.109375 3.707031 78.617188 5.226562 78.476562 6.757812 L 55.167969 254.242188 C 54.847656 257.628906 52.003906 260.214844 48.605469 260.214844 L 6.132812 260.214844 C 4.59375 260.214844 3.128906 259.566406 2.09375 258.429688 C 1.058594 257.292969 0.550781 255.773438 0.695312 254.242188 L 24.003906 6.757812 C 24.320312 3.371094 27.164062 0.785156 30.566406 0.785156 Z M 30.566406 0.785156 " clip-rule="nonzero"/></clipPath><clipPath id="7e2c4b37c7"><rect x="0" width="79" y="0" height="261"/></clipPath><clipPath id="a547fffdab"><path d="M 114.90625 58.027344 L 303.867188 58.027344 L 303.867188 246.988281 L 114.90625 246.988281 Z M 114.90625 58.027344 " clip-rule="nonzero"/></clipPath><clipPath id="c4f55fe447"><path d="M 209.386719 58.027344 C 157.207031 58.027344 114.90625 100.328125 114.90625 152.507812 C 114.90625 204.6875 157.207031 246.988281 209.386719 246.988281 C 261.566406 246.988281 303.867188 204.6875 303.867188 152.507812 C 303.867188 100.328125 261.566406 58.027344 209.386719 58.027344 Z M 209.386719 58.027344 " clip-rule="nonzero"/></clipPath><clipPath id="d5d6140867"><path d="M 0.90625 0.0273438 L 189.867188 0.0273438 L 189.867188 188.988281 L 0.90625 188.988281 Z M 0.90625 0.0273438 " clip-rule="nonzero"/></clipPath><clipPath id="10c233ddd9"><path d="M 95.386719 0.0273438 C 43.207031 0.0273438 0.90625 42.328125 0.90625 94.507812 C 0.90625 146.6875 43.207031 188.988281 95.386719 188.988281 C 147.566406 188.988281 189.867188 146.6875 189.867188 94.507812 C 189.867188 42.328125 147.566406 0.0273438 95.386719 0.0273438 Z M 95.386719 0.0273438 " clip-rule="nonzero"/></clipPath><clipPath id="9ec0ef012d"><rect x="0" width="190" y="0" height="189"/></clipPath><clipPath id="31f7b49932"><path d="M 74.742188 61.277344 L 146.425781 61.277344 L 146.425781 313.867188 L 74.742188 313.867188 Z M 74.742188 61.277344 " clip-rule="nonzero"/></clipPath><clipPath id="5a36ca0b89"><path d="M 102.832031 61.277344 L 140.710938 61.277344 C 142.25 61.277344 143.71875 61.925781 144.761719 63.058594 C 145.800781 64.195312 146.316406 65.71875 146.179688 67.253906 L 124.867188 307.746094 C 124.566406 311.128906 121.734375 313.722656 118.335938 313.722656 L 80.460938 313.722656 C 78.917969 313.722656 77.449219 313.074219 76.410156 311.941406 C 75.367188 310.804688 74.855469 309.28125 74.988281 307.746094 L 96.300781 67.253906 C 96.601562 63.871094 99.4375 61.277344 102.832031 61.277344 Z M 102.832031 61.277344 " clip-rule="nonzero"/></clipPath><clipPath id="34c79e45c3"><path d="M 0.742188 0.277344 L 72.398438 0.277344 L 72.398438 252.867188 L 0.742188 252.867188 Z M 0.742188 0.277344 " clip-rule="nonzero"/></clipPath><clipPath id="1ee859459f"><path d="M 28.832031 0.277344 L 66.710938 0.277344 C 68.25 0.277344 69.71875 0.925781 70.761719 2.058594 C 71.800781 3.195312 72.316406 4.71875 72.179688 6.253906 L 50.867188 246.746094 C 50.566406 250.128906 47.734375 252.722656 44.335938 252.722656 L 6.460938 252.722656 C 4.917969 252.722656 3.449219 252.074219 2.410156 250.941406 C 1.367188 249.804688 0.855469 248.28125 0.988281 246.746094 L 22.300781 6.253906 C 22.601562 2.871094 25.4375 0.277344 28.832031 0.277344 Z M 28.832031 0.277344 " clip-rule="nonzero"/></clipPath><clipPath id="abd9bcdd16"><rect x="0" width="73" y="0" height="253"/></clipPath><clipPath id="5c07e17351"><path d="M 118.25 61.371094 L 300.523438 61.371094 L 300.523438 243.648438 L 118.25 243.648438 Z M 118.25 61.371094 " clip-rule="nonzero"/></clipPath><clipPath id="cbd086eb1c"><path d="M 209.386719 61.371094 C 159.054688 61.371094 118.25 102.175781 118.25 152.507812 C 118.25 202.84375 159.054688 243.648438 209.386719 243.648438 C 259.722656 243.648438 300.523438 202.84375 300.523438 152.507812 C 300.523438 102.175781 259.722656 61.371094 209.386719 61.371094 Z M 209.386719 61.371094 " clip-rule="nonzero"/></clipPath><clipPath id="26526e38cf"><path d="M 0.25 0.371094 L 182.523438 0.371094 L 182.523438 182.648438 L 0.25 182.648438 Z M 0.25 0.371094 " clip-rule="nonzero"/></clipPath><clipPath id="4a2abf5da1"><path d="M 91.386719 0.371094 C 41.054688 0.371094 0.25 41.175781 0.25 91.507812 C 0.25 141.84375 41.054688 182.648438 91.386719 182.648438 C 141.722656 182.648438 182.523438 141.84375 182.523438 91.507812 C 182.523438 41.175781 141.722656 0.371094 91.386719 0.371094 Z M 91.386719 0.371094 " clip-rule="nonzero"/></clipPath><clipPath id="8408c2c35f"><rect x="0" width="183" y="0" height="183"/></clipPath><clipPath id="7793db04a8"><rect x="0" width="125" y="0" height="71"/></clipPath></defs><rect x="-37.5" width="450" fill="#ffffff" y="-37.499999" height="449.999989" fill-opacity="1"/><rect x="-37.5" width="450" fill="#eeb139" y="-37.499999" height="449.999989" fill-opacity="1"/><g clip-path="url(#bf5432bc2f)"><g clip-path="url(#8b5ddb4263)"><g transform="matrix(1, 0, 0, 1, 71, 57)"><g clip-path="url(#7e2c4b37c7)"><g clip-path="url(#1ecdbe5879)"><g clip-path="url(#30ffe1cfa9)"><path fill="#eeb139" d="M 0.132812 0.785156 L 79.039062 0.785156 L 79.039062 260.308594 L 0.132812 260.308594 Z M 0.132812 0.785156 " fill-opacity="1" fill-rule="nonzero"/></g></g></g></g></g></g><g clip-path="url(#a547fffdab)"><g clip-path="url(#c4f55fe447)"><g transform="matrix(1, 0, 0, 1, 114, 58)"><g clip-path="url(#9ec0ef012d)"><g clip-path="url(#d5d6140867)"><g clip-path="url(#10c233ddd9)"><path fill="#eeb139" d="M 0.90625 0.0273438 L 189.867188 0.0273438 L 189.867188 188.988281 L 0.90625 188.988281 Z M 0.90625 0.0273438 " fill-opacity="1" fill-rule="nonzero"/></g></g></g></g></g></g><g clip-path="url(#31f7b49932)"><g clip-path="url(#5a36ca0b89)"><g transform="matrix(1, 0, 0, 1, 74, 61)"><g clip-path="url(#abd9bcdd16)"><g clip-path="url(#34c79e45c3)"><g clip-path="url(#1ee859459f)"><path fill="#195fc6" d="M 0.460938 0.277344 L 72.710938 0.277344 L 72.710938 252.585938 L 0.460938 252.585938 Z M 0.460938 0.277344 " fill-opacity="1" fill-rule="nonzero"/></g></g></g></g></g></g><g clip-path="url(#5c07e17351)"><g clip-path="url(#cbd086eb1c)"><g transform="matrix(1, 0, 0, 1, 118, 61)"><g clip-path="url(#8408c2c35f)"><g clip-path="url(#26526e38cf)"><g clip-path="url(#4a2abf5da1)"><path fill="#195fc6" d="M 0.25 0.371094 L 182.523438 0.371094 L 182.523438 182.648438 L 0.25 182.648438 Z M 0.25 0.371094 " fill-opacity="1" fill-rule="nonzero"/></g></g></g></g></g></g><g transform="matrix(1, 0, 0, 1, 146, 117)"><g clip-path="url(#7793db04a8)"><g fill="#ff3131" fill-opacity="1"><g transform="translate(1.345114, 49.796865)"><g><path d="M 9.796875 -12.046875 C 11.597656 -12.046875 13.125 -11.414062 14.375 -10.15625 C 15.632812 -8.90625 16.265625 -7.378906 16.265625 -5.578125 C 16.265625 -3.804688 15.632812 -2.289062 14.375 -1.03125 C 13.125 0.21875 11.597656 0.84375 9.796875 0.84375 C 8.035156 0.84375 6.523438 0.21875 5.265625 -1.03125 C 4.003906 -2.289062 3.375 -3.804688 3.375 -5.578125 C 3.375 -7.378906 4.003906 -8.90625 5.265625 -10.15625 C 6.523438 -11.414062 8.035156 -12.046875 9.796875 -12.046875 Z M 9.796875 -12.046875 "/></g></g></g><g fill="#eeb139" fill-opacity="1"><g transform="translate(15.703857, 49.796865)"><g><path d="M 18.75 -21.5625 C 16.875 -21.5625 15.257812 -20.863281 13.90625 -19.46875 C 12.550781 -18.082031 11.875 -16.414062 11.875 -14.46875 C 11.875 -12.476562 12.550781 -10.785156 13.90625 -9.390625 C 15.257812 -8.003906 16.875 -7.3125 18.75 -7.3125 C 19.644531 -7.3125 20.492188 -7.425781 21.296875 -7.65625 C 22.109375 -7.882812 22.703125 -8.109375 23.078125 -8.328125 L 23.59375 -8.671875 L 26.96875 -1.75 C 26.707031 -1.5625 26.34375 -1.328125 25.875 -1.046875 C 25.40625 -0.765625 24.332031 -0.378906 22.65625 0.109375 C 20.988281 0.597656 19.195312 0.84375 17.28125 0.84375 C 13.039062 0.84375 9.316406 -0.644531 6.109375 -3.625 C 2.898438 -6.613281 1.296875 -10.191406 1.296875 -14.359375 C 1.296875 -18.554688 2.898438 -22.164062 6.109375 -25.1875 C 9.316406 -28.207031 13.039062 -29.71875 17.28125 -29.71875 C 19.195312 -29.71875 20.960938 -29.492188 22.578125 -29.046875 C 24.191406 -28.597656 25.335938 -28.148438 26.015625 -27.703125 L 26.96875 -27.015625 L 23.59375 -20.203125 C 22.351562 -21.109375 20.738281 -21.5625 18.75 -21.5625 Z M 18.75 -21.5625 "/></g></g></g><g fill="#f1efe7" fill-opacity="1"><g transform="translate(38.050068, 49.796865)"><g><path d="M 6.109375 -3.4375 C 2.898438 -6.289062 1.296875 -9.945312 1.296875 -14.40625 C 1.296875 -18.875 2.960938 -22.539062 6.296875 -25.40625 C 9.640625 -28.28125 13.769531 -29.71875 18.6875 -29.71875 C 23.53125 -29.71875 27.613281 -28.273438 30.9375 -25.390625 C 34.257812 -22.503906 35.921875 -18.84375 35.921875 -14.40625 C 35.921875 -9.976562 34.296875 -6.328125 31.046875 -3.453125 C 27.796875 -0.585938 23.675781 0.84375 18.6875 0.84375 C 13.507812 0.84375 9.316406 -0.582031 6.109375 -3.4375 Z M 13.8125 -19.296875 C 12.519531 -18.023438 11.875 -16.394531 11.875 -14.40625 C 11.875 -12.414062 12.492188 -10.789062 13.734375 -9.53125 C 14.972656 -8.28125 16.609375 -7.65625 18.640625 -7.65625 C 20.585938 -7.65625 22.1875 -8.289062 23.4375 -9.5625 C 24.695312 -10.84375 25.328125 -12.457031 25.328125 -14.40625 C 25.328125 -16.394531 24.679688 -18.023438 23.390625 -19.296875 C 22.097656 -20.578125 20.515625 -21.21875 18.640625 -21.21875 C 16.722656 -21.21875 15.113281 -20.578125 13.8125 -19.296875 Z M 13.8125 -19.296875 "/></g></g></g><g fill="#f1efe7" fill-opacity="1"><g transform="translate(69.963521, 49.796865)"><g><path d="M 3.375 0 L 3.375 -28.875 L 13.34375 -28.875 L 13.34375 -25.84375 L 13.453125 -25.84375 C 16.046875 -28.425781 18.804688 -29.71875 21.734375 -29.71875 C 23.835938 -29.71875 25.804688 -29.285156 27.640625 -28.421875 C 29.484375 -27.566406 30.875 -26.238281 31.8125 -24.4375 C 34.738281 -27.957031 37.925781 -29.71875 41.375 -29.71875 C 44.457031 -29.71875 47.101562 -28.851562 49.3125 -27.125 C 51.53125 -25.40625 52.640625 -22.707031 52.640625 -19.03125 L 52.640625 0 L 42.671875 0 L 42.671875 -16.328125 C 42.671875 -17.867188 42.25 -19.15625 41.40625 -20.1875 C 40.5625 -21.21875 39.296875 -21.734375 37.609375 -21.734375 C 36.140625 -21.734375 35.019531 -21.289062 34.25 -20.40625 C 33.488281 -19.519531 33.066406 -18.460938 32.984375 -17.234375 L 32.984375 0 L 23.03125 0 L 23.03125 -16.328125 C 23.03125 -17.867188 22.601562 -19.15625 21.75 -20.1875 C 20.90625 -21.21875 19.640625 -21.734375 17.953125 -21.734375 C 16.421875 -21.734375 15.269531 -21.253906 14.5 -20.296875 C 13.726562 -19.335938 13.34375 -18.203125 13.34375 -16.890625 L 13.34375 0 Z M 3.375 0 "/></g></g></g></g></g></svg>